<svg width="21" height="18" viewBox="0 0 21 18" fill="none" xmlns="http://www.w3.org/2000/svg">
<path d="M0 18L10.5 0L21 18H0ZM1.94822 16.875H19.0518L10.5 2.25L1.94822 16.875ZM10.5 15.318C10.6978 15.318 10.8636 15.2516 10.9972 15.1189C11.1309 14.9861 11.1974 14.8215 11.1966 14.625C11.1958 14.4285 11.129 14.2643 10.9961 14.1322C10.8632 14.0002 10.6978 13.9335 10.5 13.932C10.3022 13.9305 10.1368 13.9969 10.0039 14.1311C9.87098 14.2654 9.80415 14.43 9.8034 14.625C9.80264 14.82 9.86947 14.9846 10.0039 15.1189C10.1383 15.2531 10.3037 15.3195 10.5 15.318ZM9.93366 12.8081H11.0663V7.18313H9.93366V12.8081Z" fill="black"/>
</svg>
