<svg width="21" height="21" viewBox="0 0 21 21" fill="none" xmlns="http://www.w3.org/2000/svg">
<path d="M7.19426 21C7.05645 21 6.93771 20.9607 6.83805 20.8822C6.73839 20.8036 6.66442 20.6978 6.61615 20.5648L3.7291 11.0833H0V9.91667H4.15539C4.28775 9.91667 4.40415 9.95205 4.50459 10.0228C4.60425 10.0944 4.67822 10.1967 4.72649 10.3297L7.12419 18.1032L11.0565 0.484167C11.0853 0.3465 11.1503 0.231389 11.2515 0.138833C11.3535 0.0462777 11.4734 0 11.6113 0C11.7491 0 11.869 0.045111 11.971 0.135333C12.073 0.225555 12.138 0.3395 12.166 0.477167L15.0204 12.6782L17.1272 5.93133C17.1755 5.79911 17.2495 5.69333 17.3491 5.614C17.4488 5.53622 17.5652 5.49733 17.6983 5.49733C17.8315 5.49733 17.9428 5.53156 18.0324 5.6C18.1219 5.66844 18.1931 5.76722 18.2461 5.89633L19.7737 9.91667H21V11.0833H19.3381C19.2049 11.0833 19.0932 11.0487 19.0029 10.9795C18.9134 10.9111 18.8425 10.8201 18.7903 10.7065L17.7416 7.87267L15.484 15.0687C15.4357 15.2009 15.3645 15.3074 15.2703 15.3883C15.1761 15.4692 15.0601 15.5073 14.9223 15.5027C14.7844 15.4988 14.6634 15.4513 14.559 15.3603C14.4539 15.2701 14.387 15.1585 14.3582 15.0255L11.6113 3.21533L7.76419 20.5217C7.72059 20.6593 7.64935 20.7721 7.55047 20.86C7.45081 20.9487 7.33207 20.9953 7.19426 21Z" fill="black"/>
</svg>
