<svg width="16" height="18" viewBox="0 0 16 18" fill="none" xmlns="http://www.w3.org/2000/svg">
<path d="M3.63635 10.2858H9.45453V11.5715H3.63635V10.2858ZM3.63635 7.07153H12.3636V8.35725H3.63635V7.07153ZM3.63635 13.5001H7.27272V14.7858H3.63635V13.5001Z" fill="black"/>
<path d="M14.5455 1.92857H12.3636V1.28571C12.3636 0.944722 12.2104 0.617695 11.9376 0.376577C11.6648 0.135459 11.2949 0 10.9091 0H5.09091C4.70514 0 4.33517 0.135459 4.06239 0.376577C3.78961 0.617695 3.63636 0.944722 3.63636 1.28571V1.92857H1.45455C1.06878 1.92857 0.698807 2.06403 0.426026 2.30515C0.153246 2.54627 0 2.87329 0 3.21429V16.7143C0 17.0553 0.153246 17.3823 0.426026 17.6234C0.698807 17.8645 1.06878 18 1.45455 18H14.5455C14.9312 18 15.3012 17.8645 15.574 17.6234C15.8468 17.3823 16 17.0553 16 16.7143V3.21429C16 2.87329 15.8468 2.54627 15.574 2.30515C15.3012 2.06403 14.9312 1.92857 14.5455 1.92857ZM5.09091 1.28571H10.9091V3.85714H5.09091V1.28571ZM14.5455 16.7143H1.45455V3.21429H3.63636V5.14286H12.3636V3.21429H14.5455V16.7143Z" fill="black"/>
</svg>
