<svg width="18" height="15" viewBox="0 0 18 15" fill="none" xmlns="http://www.w3.org/2000/svg">
<path d="M4.5 0C2.64375 0 1.125 1.5 1.125 3.33333C1.125 4.44444 1.6875 5.44444 2.53125 6C1.0125 6.77778 0 8.27778 0 10H1.125C1.125 8.16667 2.64375 6.66667 4.5 6.66667C6.35625 6.66667 7.875 8.16667 7.875 10H9C9 8.22222 10.4625 6.72222 12.2625 6.66667H12.375C13.7812 6.66667 14.9625 5.83333 15.4688 4.66667C15.4688 4.66667 15.4688 4.61111 15.525 4.61111C15.5813 4.55556 15.5813 4.44444 15.5813 4.38889C15.5813 4.33333 15.5812 4.33333 15.6375 4.27778C15.6375 4.22222 15.6937 4.11111 15.6937 4.05556C15.6937 4 15.6938 3.94444 15.75 3.88889C15.75 3.83333 15.75 3.77778 15.8063 3.72222V3.38889C15.8063 1.55556 14.2875 0.0555555 12.4313 0.0555555C10.575 0.0555555 9.05625 1.55556 9.05625 3.38889C9.05625 4.5 9.61875 5.5 10.4625 6.05556C9.61875 6.44444 8.94375 7.11111 8.49375 7.88889C8.04375 7.11111 7.36875 6.44444 6.525 6.05556C7.3125 5.44444 7.875 4.44444 7.875 3.33333C7.875 1.5 6.35625 0 4.5 0ZM4.5 1.11111C5.7375 1.11111 6.75 2.11111 6.75 3.33333C6.75 4.55556 5.7375 5.55556 4.5 5.55556C3.2625 5.55556 2.25 4.55556 2.25 3.33333C2.25 2.11111 3.2625 1.11111 4.5 1.11111ZM12.375 1.11111C13.6125 1.11111 14.625 2.11111 14.625 3.33333C14.625 4.55556 13.6125 5.55556 12.375 5.55556C11.1375 5.55556 10.125 4.55556 10.125 3.33333C10.125 2.11111 11.1375 1.11111 12.375 1.11111ZM13.5563 7.22222V8.38889C13.2188 8.44444 12.8812 8.61111 12.6 8.77778L11.7562 7.94444L10.9688 8.72222L11.8125 9.55556C11.5875 9.83333 11.475 10.1667 11.4187 10.5556H10.125V11.6667H11.3063C11.3625 12 11.5312 12.3333 11.7 12.6667L10.8562 13.5L11.6438 14.2778L12.4875 13.4444C12.7688 13.6111 13.1062 13.7778 13.4437 13.8333V15H14.5687V13.8333C14.9062 13.7778 15.2438 13.6111 15.525 13.4444L16.3687 14.2778L17.1562 13.5L16.3125 12.6667C16.5375 12.3889 16.65 12.0556 16.7063 11.6667H18V10.5556H16.8188C16.7625 10.2222 16.5938 9.88889 16.425 9.55556L17.2688 8.72222L16.4812 7.94444L15.6375 8.77778C15.3562 8.61111 15.0188 8.44444 14.6813 8.38889V7.22222H13.5563ZM14.0625 9.44444C15.0188 9.44444 15.75 10.1667 15.75 11.1111C15.75 12.0556 15.0188 12.7778 14.0625 12.7778C13.1062 12.7778 12.375 12.0556 12.375 11.1111C12.375 10.1667 13.1062 9.44444 14.0625 9.44444ZM14.0625 10.5556C13.991 10.5569 13.9207 10.5732 13.8561 10.6033C13.7889 10.6344 13.7279 10.6771 13.6761 10.7294C13.6231 10.7807 13.5798 10.8409 13.5484 10.9072C13.5179 10.9711 13.5014 11.0405 13.5 11.1111C13.5007 11.1815 13.5169 11.2494 13.5484 11.315C13.5793 11.38 13.6232 11.4411 13.6761 11.4928C13.7284 11.545 13.7902 11.5883 13.8561 11.6189C13.9207 11.649 13.991 11.6653 14.0625 11.6667C14.3438 11.6667 14.625 11.3889 14.625 11.1111C14.625 10.8333 14.3438 10.5556 14.0625 10.5556Z" fill="black"/>
</svg>
