<svg width="20" height="23" viewBox="0 0 20 23" fill="none" xmlns="http://www.w3.org/2000/svg">
<path d="M10 23C6.85455 23 0 14.7364 0 9.19179C0 4.11864 4.47273 0 10 0C15.5273 0 20 4.11864 20 9.19179C20 14.7364 13.1455 23 10 23ZM10 21.3571C10.52 21.3571 12.6909 19.642 14.4709 17.4964C16.7618 14.7348 18.1818 11.7514 18.1818 9.19343C18.1818 5.01893 14.5145 1.64286 10 1.64286C5.48545 1.64286 1.81818 5.01893 1.81818 9.19179C1.81818 11.7497 3.23636 14.7331 5.52909 17.4981C7.30909 19.642 9.48 21.3571 10 21.3571ZM10 13.1494C8.79447 13.1494 7.63832 12.7167 6.78588 11.9465C5.93344 11.1762 5.45455 10.1316 5.45455 9.04229C5.45455 7.953 5.93344 6.90834 6.78588 6.1381C7.63832 5.36786 8.79447 4.93514 10 4.93514C11.2055 4.93514 12.3617 5.36786 13.2141 6.1381C14.0666 6.90834 14.5455 7.953 14.5455 9.04229C14.5455 10.1316 14.0666 11.1762 13.2141 11.9465C12.3617 12.7167 11.2055 13.1494 10 13.1494ZM10 11.5066C10.7233 11.5066 11.417 11.2469 11.9285 10.7848C12.4399 10.3227 12.7273 9.69586 12.7273 9.04229C12.7273 8.38872 12.4399 7.76192 11.9285 7.29977C11.417 6.83763 10.7233 6.578 10 6.578C9.27668 6.578 8.58299 6.83763 8.07153 7.29977C7.56006 7.76192 7.27273 8.38872 7.27273 9.04229C7.27273 9.69586 7.56006 10.3227 8.07153 10.7848C8.58299 11.2469 9.27668 11.5066 10 11.5066Z" fill="black"/>
</svg>
