<svg width="20" height="26" viewBox="0 0 20 26" fill="none" xmlns="http://www.w3.org/2000/svg">
<path d="M17.5 14.475V10.5C17.4982 8.7289 16.8697 7.01559 15.7258 5.66347C14.5818 4.31135 12.9963 3.40768 11.25 3.1125V1.75C11.25 1.41848 11.1183 1.10054 10.8839 0.866116C10.6495 0.631696 10.3315 0.5 10 0.5C9.66848 0.5 9.35054 0.631696 9.11612 0.866116C8.8817 1.10054 8.75 1.41848 8.75 1.75V3.1125C7.00367 3.40768 5.41816 4.31135 4.27423 5.66347C3.13031 7.01559 2.50179 8.7289 2.5 10.5V14.475C1.77056 14.7329 1.13875 15.2101 0.691173 15.8412C0.243598 16.4722 0.00217439 17.2263 0 18V20.5C0 20.8315 0.131696 21.1495 0.366117 21.3839C0.600537 21.6183 0.918479 21.75 1.25 21.75H5.175C5.46285 22.8092 6.09125 23.7443 6.96325 24.4109C7.83524 25.0776 8.90237 25.4388 10 25.4388C11.0976 25.4388 12.1648 25.0776 13.0368 24.4109C13.9087 23.7443 14.5371 22.8092 14.825 21.75H18.75C19.0815 21.75 19.3995 21.6183 19.6339 21.3839C19.8683 21.1495 20 20.8315 20 20.5V18C19.9978 17.2263 19.7564 16.4722 19.3088 15.8412C18.8613 15.2101 18.2294 14.7329 17.5 14.475ZM5 10.5C5 9.17392 5.52678 7.90215 6.46447 6.96447C7.40215 6.02678 8.67392 5.5 10 5.5C11.3261 5.5 12.5979 6.02678 13.5355 6.96447C14.4732 7.90215 15 9.17392 15 10.5V14.25H5V10.5ZM10 23C9.56372 22.9974 9.13572 22.8806 8.75854 22.6613C8.38136 22.442 8.06814 22.1278 7.85 21.75H12.15C11.9319 22.1278 11.6186 22.442 11.2415 22.6613C10.8643 22.8806 10.4363 22.9974 10 23ZM17.5 19.25H2.5V18C2.5 17.6685 2.6317 17.3505 2.86612 17.1161C3.10054 16.8817 3.41848 16.75 3.75 16.75H16.25C16.5815 16.75 16.8995 16.8817 17.1339 17.1161C17.3683 17.3505 17.5 17.6685 17.5 18V19.25Z" fill="#1B1B1B"/>
</svg>
