<svg width="26" height="26" viewBox="0 0 26 26" fill="none" xmlns="http://www.w3.org/2000/svg">
<path d="M12.9999 0.5C10.5755 0.504606 8.20479 1.21414 6.17648 2.54217C4.14816 3.87021 2.54981 5.75943 1.57612 7.97971C0.602422 10.2 0.295409 12.6555 0.692472 15.0472C1.08953 17.4389 2.17354 19.6635 3.81244 21.45C4.98297 22.7188 6.40362 23.7314 7.98486 24.424C9.56611 25.1166 11.2737 25.4742 12.9999 25.4742C14.7262 25.4742 16.4338 25.1166 18.015 24.424C19.5963 23.7314 21.0169 22.7188 22.1874 21.45C23.8263 19.6635 24.9103 17.4389 25.3074 15.0472C25.7045 12.6555 25.3975 10.2 24.4238 7.97971C23.4501 5.75943 21.8517 3.87021 19.8234 2.54217C17.7951 1.21414 15.4243 0.504606 12.9999 0.5ZM12.9999 23C10.4105 22.9961 7.92358 21.9878 6.06244 20.1875C6.62749 18.8119 7.58873 17.6354 8.82401 16.8074C10.0593 15.9793 11.5128 15.5373 12.9999 15.5373C14.4871 15.5373 15.9406 15.9793 17.1759 16.8074C18.4111 17.6354 19.3724 18.8119 19.9374 20.1875C18.0763 21.9878 15.5894 22.9961 12.9999 23ZM10.4999 10.5C10.4999 10.0055 10.6466 9.5222 10.9213 9.11107C11.196 8.69995 11.5864 8.37952 12.0432 8.1903C12.5 8.00108 13.0027 7.95157 13.4877 8.04804C13.9726 8.1445 14.4181 8.3826 14.7677 8.73223C15.1173 9.08186 15.3554 9.52732 15.4519 10.0123C15.5484 10.4972 15.4989 10.9999 15.3096 11.4567C15.1204 11.9135 14.8 12.304 14.3889 12.5787C13.9777 12.8534 13.4944 13 12.9999 13C12.3369 13 11.701 12.7366 11.2322 12.2678C10.7633 11.7989 10.4999 11.163 10.4999 10.5ZM21.6374 18C20.5206 16.0897 18.8017 14.6038 16.7499 13.775C17.3864 13.0533 17.8011 12.1633 17.9443 11.2118C18.0875 10.2603 17.953 9.28764 17.5571 8.41062C17.1612 7.5336 16.5207 6.78945 15.7123 6.26746C14.904 5.74547 13.9622 5.46781 12.9999 5.46781C12.0377 5.46781 11.0959 5.74547 10.2876 6.26746C9.47921 6.78945 8.83865 7.5336 8.44275 8.41062C8.04685 9.28764 7.91242 10.2603 8.0556 11.2118C8.19878 12.1633 8.61348 13.0533 9.24994 13.775C7.19819 14.6038 5.47928 16.0897 4.36244 18C3.47237 16.4839 3.00209 14.7581 2.99994 13C2.99994 10.3478 4.05351 7.8043 5.92887 5.92893C7.80424 4.05357 10.3478 3 12.9999 3C15.6521 3 18.1956 4.05357 20.071 5.92893C21.9464 7.8043 22.9999 10.3478 22.9999 13C22.9978 14.7581 22.5275 16.4839 21.6374 18Z" fill="#1B1B1B"/>
</svg>
