<svg width="23" height="27" viewBox="0 0 23 27" fill="none" xmlns="http://www.w3.org/2000/svg">
<path d="M15.3157 21.1923V22.1538C15.3157 23.1739 14.9137 24.1522 14.1983 24.8735C13.4828 25.5948 12.5125 26 11.5007 26C10.4889 26 9.51858 25.5948 8.80314 24.8735C8.0877 24.1522 7.68577 23.1739 7.68577 22.1538V21.1923M21.7343 19.235C20.2036 17.3462 19.1229 16.3846 19.1229 11.1773C19.1229 6.40865 16.7075 4.70974 14.7196 3.88462C14.4555 3.77524 14.2069 3.52404 14.1265 3.2506C13.7778 2.05409 12.8002 1 11.5007 1C10.2012 1 9.22307 2.05469 8.87794 3.2518C8.79746 3.52825 8.5489 3.77524 8.28483 3.88462C6.2945 4.71094 3.88155 6.40385 3.88155 11.1773C3.87857 16.3846 2.79786 17.3462 1.26712 19.235C0.632882 20.0174 1.18843 21.1923 2.29775 21.1923H20.7096C21.813 21.1923 22.365 20.0138 21.7343 19.235Z" stroke="black" stroke-linecap="round" stroke-linejoin="round"/>
</svg>
